<?xml version="1.0" encoding="UTF-8" standalone="no"?>
<!-- Created with Inkscape (http://www.inkscape.org/) -->

<svg
   width="50.0px"
   height="50.0px"
   viewBox="0 0 50.0 50.0"
   version="1.1"
   id="SVGRoot"
   sodipodi:docname="github.svg"
   inkscape:version="1.2 (dc2aedaf03, 2022-05-15)"
   xmlns:inkscape="http://www.inkscape.org/namespaces/inkscape"
   xmlns:sodipodi="http://sodipodi.sourceforge.net/DTD/sodipodi-0.dtd"
   xmlns="http://www.w3.org/2000/svg"
   xmlns:svg="http://www.w3.org/2000/svg">
  <sodipodi:namedview
     id="namedview342"
     pagecolor="#ffffff"
     bordercolor="#666666"
     borderopacity="1.0"
     inkscape:showpageshadow="2"
     inkscape:pageopacity="0.0"
     inkscape:pagecheckerboard="0"
     inkscape:deskcolor="#d1d1d1"
     inkscape:document-units="px"
     showgrid="true"
     inkscape:zoom="8.4561559"
     inkscape:cx="21.345397"
     inkscape:cy="31.574631"
     inkscape:window-width="1920"
     inkscape:window-height="1011"
     inkscape:window-x="0"
     inkscape:window-y="32"
     inkscape:window-maximized="1"
     inkscape:current-layer="layer1"
     inkscape:lockguides="true">
    <inkscape:grid
       type="xygrid"
       id="grid348" />
  </sodipodi:namedview>
  <defs
     id="defs337" />
  <g
     inkscape:label="Слой 1"
     inkscape:groupmode="layer"
     id="layer1">
    <path
       d="M 22.424989,0.30233693 C 10.901642,1.591739 1.6328645,11.133315 0.38032707,22.737933 -0.87221021,34.858315 5.8914922,45.689292 16.162301,49.815379 c 0.751521,0.257882 1.503044,-0.25788 1.503044,-1.289402 V 44.39989 c 0,0 -1.00203,0.257882 -2.254567,0.257882 -3.507106,0 -5.010151,-3.094566 -5.260658,-4.89973 -0.2505077,-1.03152 -0.7515227,-1.805163 -1.5030452,-2.578804 -0.7515225,-0.25788 -1.00203,-0.25788 -1.00203,-0.515759 0,-0.515762 0.7515225,-0.515762 1.00203,-0.515762 1.5030452,0 2.7555822,1.805162 3.2565972,2.578805 1.252538,2.063043 2.755583,2.578804 3.507106,2.578804 1.002029,0 1.753552,-0.257881 2.254567,-0.515761 0.250508,-1.805164 1.002029,-3.610327 2.505075,-4.641848 -5.761673,-1.289402 -10.0203,-4.641848 -10.0203,-10.315218 0,-2.836684 1.252537,-5.673367 3.00609,-7.736412 -0.250507,-0.515761 -0.501015,-1.805163 -0.501015,-3.610326 0,-1.031521 0,-2.320924 0.501015,-3.352446 0,-0.515761 0.501016,-0.773641 0.751522,-0.773641 0,0 0.250508,0 0.250508,0 1.252538,0.25788 3.757613,1.031521 6.01218,3.352445 1.503046,-0.51576 3.256599,-0.773641 5.010151,-0.773641 1.753552,0 3.507105,0.257881 5.01015,0.773641 2.254568,-2.320924 5.01015,-3.094565 6.262689,-3.352445 0,0 0.250507,0 0.250507,0 0.501015,0 0.751522,0.25788 1.002029,0.773641 0,1.031522 0,2.320925 0,3.352446 0,2.063043 -0.250507,3.094565 -0.501014,3.610326 1.753553,2.063045 3.006089,4.641846 3.006089,7.736412 0,5.67337 -4.258627,9.025816 -10.0203,10.315218 1.503046,1.289403 2.505075,3.610325 2.505075,5.93125 v 6.704891 c 0,0.773641 0.751523,1.547282 1.753552,1.289403 9.268778,-3.868207 15.781973,-13.151903 15.781973,-23.98288 0,-15.472827 -12.775882,-27.5932072 -27.806332,-25.78804407 z"
       id="path2"
       style="stroke-width:2.54166" />
  </g>
</svg>
