<?xml version="1.0" encoding="UTF-8" standalone="no"?>
<!-- Created with Inkscape (http://www.inkscape.org/) -->

<svg
   width="50.0px"
   height="50.0px"
   viewBox="0 0 50.0 50.0"
   version="1.1"
   id="SVGRoot"
   sodipodi:docname="telegram.svg"
   inkscape:version="1.2 (dc2aedaf03, 2022-05-15)"
   xml:space="preserve"
   xmlns:inkscape="http://www.inkscape.org/namespaces/inkscape"
   xmlns:sodipodi="http://sodipodi.sourceforge.net/DTD/sodipodi-0.dtd"
   xmlns="http://www.w3.org/2000/svg"
   xmlns:svg="http://www.w3.org/2000/svg"><sodipodi:namedview
     id="namedview342"
     pagecolor="#ffffff"
     bordercolor="#666666"
     borderopacity="1.0"
     inkscape:showpageshadow="2"
     inkscape:pageopacity="0.0"
     inkscape:pagecheckerboard="0"
     inkscape:deskcolor="#d1d1d1"
     inkscape:document-units="px"
     showgrid="true"
     inkscape:zoom="8.4561559"
     inkscape:cx="13.658689"
     inkscape:cy="26.726092"
     inkscape:window-width="1920"
     inkscape:window-height="1011"
     inkscape:window-x="0"
     inkscape:window-y="32"
     inkscape:window-maximized="1"
     inkscape:current-layer="layer1"
     inkscape:lockguides="true"><inkscape:grid
       type="xygrid"
       id="grid348" /></sodipodi:namedview><defs
     id="defs337" /><g
     inkscape:label="Слой 1"
     inkscape:groupmode="layer"
     id="layer1"><path
       style="fill:#000000;stroke-width:0.0976562"
       d="M 22.701054,49.882862 C 16.916029,49.286352 11.802257,46.937084 7.7261682,43.003396 5.4829975,40.838592 3.9656115,38.782797 2.6391425,36.111364 -0.39471054,30.001354 -0.82532454,23.185475 1.4118245,16.685037 1.9165195,15.218552 3.2614095,12.53469 4.1766945,11.167459 9.5900492,3.0811201 19.103256,-1.1498368 28.67518,0.27186568 38.69797,1.7605346 46.839749,9.179538 49.259443,19.028787 c 0.518701,2.111348 0.684445,3.553896 0.684445,5.957031 0,2.403135 -0.165744,3.845683 -0.684445,5.957031 -0.793787,3.231074 -2.310637,6.43892 -4.271406,9.033203 -0.787318,1.041697 -1.079473,1.374116 -2.303044,2.620445 -3.726097,3.7954 -8.660383,6.298781 -14.006085,7.105903 -1.494832,0.225698 -4.623245,0.32014 -5.977854,0.180462 z m 9.852063,-12.308011 c 0.142593,-0.112164 0.322033,-0.325322 0.398755,-0.473685 0.213925,-0.413686 4.371738,-20.092102 4.368133,-20.673839 -0.0057,-0.921033 -0.529599,-1.47761 -1.294297,-1.375042 -0.200343,0.02687 -3.412185,1.224032 -7.137426,2.660355 -3.725241,1.436324 -9.200302,3.546756 -12.166802,4.689848 -2.9665,1.143093 -5.577353,2.180984 -5.801896,2.306426 -0.576122,0.321852 -0.831396,0.690302 -0.7125,1.028383 0.05099,0.144975 0.229184,0.343302 0.395996,0.440726 0.41203,0.240638 6.572923,2.153161 6.767267,2.10076 0.08521,-0.02298 3.384906,-2.076472 7.33266,-4.563324 5.643265,-3.554926 7.248638,-4.523543 7.509395,-4.53087 0.182414,-0.0051 0.349611,0.04183 0.37155,0.104354 0.02194,0.06252 -2.621205,2.51752 -5.873653,5.455556 -4.311094,3.894344 -5.913441,5.398386 -5.913169,5.550391 1.96e-4,0.114678 -0.09259,1.518293 -0.206223,3.119145 -0.113628,1.600851 -0.182856,2.934379 -0.15384,2.963394 0.02902,0.02902 0.196816,0.02112 0.372891,-0.01756 0.23415,-0.05143 0.79559,-0.524135 2.09032,-1.759954 l 1.770184,-1.68964 3.116859,2.300731 c 1.714272,1.265403 3.248694,2.359097 3.409827,2.430432 0.451233,0.199767 1.05505,0.170114 1.355969,-0.06659 z"
       id="path178" /></g></svg>
